<?xml version="1.0" encoding="utf-8"?>
<!-- Svg Vector Icons : http://www.onlinewebfonts.com/icon -->
<!DOCTYPE svg PUBLIC "-//W3C//DTD SVG 1.1//EN" "http://www.w3.org/Graphics/SVG/1.1/DTD/svg11.dtd">
<svg version="1.1" xmlns="http://www.w3.org/2000/svg" xmlns:xlink="http://www.w3.org/1999/xlink" x="0px" y="0px" viewBox="0 0 1000 1000" enable-background="new 0 0 1000 1000" xml:space="preserve">
<metadata> Svg Vector Icons : http://www.onlinewebfonts.com/icon </metadata>
<g><g transform="translate(0.000000,511.000000) scale(0.100000,-0.100000)"><path d="M5034.9,4842.7c-292.3-66.9-631.6-240.2-891.6-453.2c-91.6-71.8-106.5-99.1-106.5-178.3c0-74.3,14.9-106.5,64.4-146.1c86.7-66.9,123.8-64.4,297.2,14.9c222.9,104,416.1,96.6,671.2-29.7c161-79.3,240.2-141.2,465.6-369c151.1-151.1,334.4-364.1,411.1-473c222.9-317,215.5-297.2,138.7-374c-96.6-94.1-86.7-180.8,29.7-317c356.7-411.1,1280.4-1379.5,1327.5-1391.9c32.2-7.4,104,7.4,170.9,37.1c138.7,64.4,213,49.5,302.1-54.5c52-61.9,61.9-94.1,49.5-161c-7.4-47.1-29.7-104-52-128.8c-19.8-22.3-37.1-79.3-37.1-126.3c0-74.3,39.6-126.3,297.2-406.2c307.1-334.4,378.9-383.9,482.9-344.2c69.3,24.8,1159.1,1022.9,1218.5,1117c24.8,37.1,32.2,79.2,19.8,123.8c-12.4,57-478,589.4-604.3,695.9c-49.5,39.6-173.4,37.1-250.1-7.4c-101.5-57-193.2-44.6-274.9,34.7c-86.7,89.2-94.1,190.7-17.3,322c34.7,61.9,47,111.5,37.1,156c-19.8,79.2-1312.6,1483.5-1396.9,1518.2c-39.6,14.9-84.2,12.4-136.2-7.4c-79.3-29.7-79.3-27.2-329.4,213c-383.9,378.9-700.9,587-1065,698.4C5634.2,4874.9,5247.9,4892.2,5034.9,4842.7z"/><path d="M1839.9,4825.4c-66.9-32.2-116.4-148.6-94.1-222.9c9.9-32.2,173.4-215.5,364.1-406.2l346.7-351.7l-133.8-490.4l-131.3-492.9l-492.9-131.3l-490.4-133.8l-351.7,346.7c-190.7,190.7-374,354.2-406.2,364.1c-79.3,22.3-190.7-27.2-225.4-101.5c-34.7-76.8-34.7-188.2,0-413.6c61.9-396.3,230.3-728.1,517.6-1008c220.4-217.9,391.3-324.4,686-428.5c203.1-71.8,242.7-76.8,552.3-79.3c255.1,0,369,9.9,480.5,44.6l146.1,44.6l438.4-433.4c364.1-364.1,448.3-435.9,507.7-435.9c61.9,0,148.6,74.3,537.4,465.6c391.3,388.8,465.6,475.5,465.6,537.5c0,59.4-71.8,143.6-435.9,507.7l-433.4,438.4l44.6,146.1c34.7,111.4,44.6,225.4,44.6,480.5c-2.5,309.6-7.4,349.2-79.3,552.3c-104,294.7-210.5,465.6-428.5,686c-203.1,208-398.8,334.3-661.3,428.5C2327.9,4840.2,1956.4,4882.3,1839.9,4825.4z"/><path d="M6033,1979.7c-131.3-118.9-138.7-123.8-193.2-86.7c-146.1,101.5-9.9,210.5-2922.5-2325.6C633.8-2423.8,193-2815.2,148.4-2909.3c-44.6-94.1-52-146.1-47.1-304.6c12.4-255.1,99.1-433.4,317-651.4c225.4-222.9,401.2-307.1,646.4-307.1c131.3,0,213,12.4,277.4,47.1c52,24.8,351.7,287.3,668.7,582c317,294.7,1468.7,1364.6,2558.4,2377.6C5659-152.7,6580.3,706.7,6619.9,746.3c76.8,81.7,91.6,217.9,29.7,270c-57,47.1-47.1,66.9,106.5,210.5l141.2,131.3l-64.4,71.8c-289.8,322-626.6,676.1-644,676.1C6179.1,2106,6109.8,2049,6033,1979.7z"/><path d="M5604.5-551.5c-411.1-411.1-453.2-460.6-453.2-537.4c0-76.8,47-131.3,532.5-616.7l530-535l-42.1-148.6c-29.7-106.5-42.1-242.7-39.6-482.9c0-309.6,5-349.2,76.8-552.3c106.5-302.1,210.5-468.1,440.8-700.9c304.6-307.1,693.5-482.9,1151.7-520.1c208-17.3,270,2.5,336.8,101.5c69.4,106.5,24.8,178.3-341.8,547.3l-346.7,351.7l128.8,478c69.4,265,133.8,487.9,143.7,497.8c9.9,9.9,232.8,74.3,497.8,143.7l478,128.8l351.7-346.7c369-366.5,440.8-411.1,547.3-341.8c99.1,66.9,118.9,128.8,101.5,336.8c-22.3,270-74.3,450.8-205.6,718.2c-94.1,193.2-148.6,270-314.5,433.4c-232.8,230.3-398.7,334.4-700.9,440.8c-203.1,71.8-242.7,76.8-552.3,76.8c-240.2,2.5-376.5-9.9-482.9-39.6l-148.6-42.1l-535,530C6273.2-145.3,6218.7-98.3,6142-98.3C6065.2-98.3,6015.6-140.4,5604.5-551.5z"/></g></g>
</svg>