<?xml version="1.0" encoding="UTF-8" standalone="no"?>
<svg
   width="500"
   height="500"
   version="1.1"
   id="svg950"
   sodipodi:docname="James_Webb_Space_Telescope_logo.svg"
   inkscape:version="1.1.1 (3bf5ae0d25, 2021-09-20)"
   xmlns:inkscape="http://www.inkscape.org/namespaces/inkscape"
   xmlns:sodipodi="http://sodipodi.sourceforge.net/DTD/sodipodi-0.dtd"
   xmlns="http://www.w3.org/2000/svg"
   xmlns:svg="http://www.w3.org/2000/svg"
   xmlns:rdf="http://www.w3.org/1999/02/22-rdf-syntax-ns#"
   xmlns:cc="http://creativecommons.org/ns#"
   xmlns:dc="http://purl.org/dc/elements/1.1/">
  <defs
     id="defs954" />
  <sodipodi:namedview
     id="namedview952"
     pagecolor="#ffffff"
     bordercolor="#666666"
     borderopacity="1.0"
     inkscape:pageshadow="2"
     inkscape:pageopacity="0.0"
     inkscape:pagecheckerboard="0"
     showgrid="false"
     inkscape:zoom="1.935"
     inkscape:cx="256.58915"
     inkscape:cy="301.55039"
     inkscape:window-width="3440"
     inkscape:window-height="1369"
     inkscape:window-x="-8"
     inkscape:window-y="-8"
     inkscape:window-maximized="1"
     inkscape:current-layer="svg950" />
  <title
     id="title890">James Webb Space Telescope logo</title>
  <path
     d="m 275.00664,209.89543 -18.78415,19.47122 1.35017,21.08245 19.42392,5.35351 17.71869,-17.6714 -2.20297,-24.2091 z"
     id="path892"
     style="fill:#002b7c;stroke-width:6.0641" />
  <path
     d="m 379.91557,206.68146 -18.524,21.93506 0.80537,19.49487 14.37859,2.8899 18.6659,-23.83009 -0.99487,-18.78476 z"
     id="path894"
     style="fill:#002b7c;stroke-width:6.0641" />
  <path
     d="m 394.40877,308.25513 1.04224,-20.11098 -15.91826,-2.72405 -17.83695,19.42391 -1.18438,18.3342 15.70481,3.76636 z"
     id="path896"
     style="fill:#002b7c;stroke-width:6.0641" />
  <path
     d="m 239.53166,271.87053 -0.23711,19.09221 16.65263,5.04552 17.57618,-14.8995 -0.56881,-18.85571 -17.29239,-4.78494 z"
     id="path898"
     style="fill:#002b7c;stroke-width:6.0641" />
  <path
     d="m 415.51184,260.10618 -0.40266,-23.7355 -14.18878,-1.63445 -18.3815,23.47473 -0.0709,18.42941 16.20267,2.79513 z"
     id="path900"
     style="fill:#002b7c;stroke-width:6.0641" />
  <path
     d="m 326.06637,373.74741 2.98468,-22.52692 -12.93351,-3.57691 -18.87936,16.15537 -3.17419,20.9163 13.71517,4.07428 z"
     id="path902"
     style="fill:#002b7c;stroke-width:6.0641" />
  <path
     d="m 370.88006,355.25191 1.94246,-19.68468 -15.77637,-3.76635 -18.54765,17.69504 -2.91362,22.07697 13.14697,3.34004 z"
     id="path904"
     style="fill:#002b7c;stroke-width:6.0641" />
  <path
     d="m 314.7265,196.2512 -14.9941,16.58168 2.06083,22.64577 14.75759,3.43477 15.30215,-17.43429 -2.03711,-22.47962 z"
     id="path906"
     style="fill:#002b7c;stroke-width:6.0641" />
  <path
     d="m 236.49961,346.70153 -2.36876,18.12135 13.38347,4.61914 21.3426,-16.20267 1.87132,-18.6186 -13.38347,-4.6428 z"
     id="path908"
     style="fill:#002b7c;stroke-width:6.0641" />
  <path
     d="m 218.61051,312.80321 -1.9661,21.41355 14.44954,5.06922 20.41904,-16.39187 1.04223,-18.3815 -17.41064,-5.28238 z"
     id="path910"
     style="fill:#002b7c;stroke-width:6.0641" />
  <path
     d="m 295.62458,308.31577 0.23711,-12.43625 -2.96098,-3.52955 -13.66787,-4.05058 -17.43429,14.75759 -1.0423,18.45306 14.47319,5.0218 z"
     id="path912"
     style="fill:#002b7c;stroke-width:6.0641" />
  <path
     d="m 310.60291,340.39486 1.37388,-21.12975 -0.44995,-0.66329 -10.73043,-2.7004 -20.91629,18.64225 -1.7766,17.8133 13.73882,4.07428 z"
     id="path914"
     style="fill:#002b7c;stroke-width:6.0641" />
  <path
     d="m 338.25521,228.02709 -16.17902,18.45305 0.68694,20.65554 0.5209,0.78172 11.22829,2.79519 18.64226,-20.48999 -0.80537,-19.37662 z"
     id="path916"
     style="fill:#002b7c;stroke-width:6.0641" />
  <path
     d="m 339.89251,278.29848 -0.4736,14.42588 0.78172,1.18438 16.06016,3.3637 17.00798,-18.54766 0.0709,-19.04491 -13.95228,-2.79519 z"
     id="path918"
     style="fill:#002b7c;stroke-width:6.0641" />
  <path
     d="m 282.10164,261.01579 0.26076,9.56976 4.87972,-10.25682 5.75616,-2.27404 7.81723,1.20809 12.79162,6.70386 -0.61587,-18.50035 -14.02324,-3.29263 z"
     id="path920"
     style="fill:#002b7c;stroke-width:6.0641" />
  <path
     d="m 351.23238,324.68884 1.25545,-18.85571 -16.86547,-3.52949 -14.6157,14.07053 0.28441,0.40266 -1.46867,22.45597 12.55451,3.48213 z"
     id="path922"
     style="fill:#002b7c;stroke-width:6.0641" />
  <path
     d="m 321.03316,190.9148 0.56881,-0.78173 -0.16555,-0.0485 z"
     id="path924"
     style="fill:#002b7c;stroke-width:6.0641" />
  <path
     d="m 283.92087,384.84471 2.86626,-20.15828 -12.45991,-3.5532 -19.37662,14.97105 -1.35023,9.00155 22.29042,6.08775 z"
     id="path926"
     style="fill:#002b7c;stroke-width:6.0641" />
  <path
     d="m 106.84915,168.41698 -3.26891,22.90593 -22.764025,4.24014 22.905925,3.26897 4.26379,22.76403 3.26897,-22.90593 22.74038,-4.26385 -22.90654,-3.26891 z"
     id="path928"
     style="fill:#002b7c;stroke-width:6.0641" />
  <path
     d="m 140.99003,255.80067 c -0.59246,-0.49726 -1.13702,-1.01859 -1.91874,-1.30288 -2.39247,-0.85273 -4.85601,0.071 -6.72751,1.06595 -0.94752,0.61593 -1.84767,1.35023 -2.65305,2.17932 0.9001,-0.35536 1.80025,-0.56881 2.77148,-0.35536 4.02693,0.85274 6.34851,7.20112 5.35345,14.49684 -0.56881,4.098 -2.88991,10.58852 -6.63291,15.51561 -0.40266,0.54455 -0.80538,1.066 -1.32653,1.53973 -0.9238,1.0423 -1.89503,2.01346 -2.96097,2.77148 -2.8189,2.06088 -5.80353,2.81889 -8.85905,2.27403 -0.11825,0 -3.36369,-0.5209 -5.61402,-4.1217 -2.81884,-4.50066 -2.74783,-11.63095 0.21346,-21.1061 0.26075,-0.8528 5.82717,-17.64775 17.00798,-30.3678 -5.51924,4.90343 -13.02812,14.63934 -19.47122,33.68425 -0.0709,0.21346 -6.89306,23.56934 6.68021,30.34415 0.44996,0.21285 0.92381,0.42631 1.42124,0.61587 0.59247,0.0709 18.83207,2.77148 26.00954,-26.12778 0.0242,-0.0946 1.42124,-7.15382 0.49725,-13.43077 z"
     id="path930"
     style="fill:#002b7c;stroke-width:6.0641" />
  <path
     d="m 122.79773,265.3213 c 0.61587,-4.24014 5.11659,-9.52245 6.75117,-10.51757 0.44995,-0.26076 0.99487,-0.59246 1.56338,-0.90016 2.39247,-1.61074 5.06922,-2.55826 7.62743,-2.7004 l -2.93727,-5.94567 c -1.5871,0.71065 -3.12683,1.56339 -4.38228,2.55826 -0.26076,0.1419 -11.77285,6.58501 -16.15537,29.65709 -0.42631,2.15561 -0.63958,8.90695 2.25032,11.82014 1.2318,1.25545 2.88997,1.68182 5.02187,1.27916 1.18438,-0.1892 2.74776,-0.78172 4.21643,-1.70552 -1.32653,0.26075 -2.72412,0.16555 -4.00328,-0.75802 -3.90849,-2.79518 -5.61402,-10.16221 0.0243,-22.62212 z"
     id="path932"
     style="fill:#002b7c;stroke-width:6.0641" />
  <path
     d="m 124.31376,316.44167 c 3.79006,-1.80025 8.50369,-4.76123 12.69701,-9.45151 5.82718,-6.53771 11.82014,-17.00798 14.63934,-29.53884 l -2.58197,-5.28244 c -0.21345,1.49238 -0.4263,2.98469 -0.78172,4.66651 -0.0485,0.23711 -4.31121,23.99565 -23.97199,39.60585"
     id="path934"
     style="fill:#002b7c;stroke-width:6.0641" />
  <path
     d="m 148.14567,155.31853 c 16.96068,0.0485 42.11699,-6.41946 61.87201,-24.73001 8.8827,-9.2144 12.43626,-17.67139 10.25682,-24.37465 -2.25039,-6.91671 -9.87781,-10.635822 -16.22632,-11.725541 -0.3317,-0.11825 -17.64774,-6.18235 -45.62265,10.541221 -3.07947,1.82396 -9.97241,7.79359 -10.35142,13.52598 -0.16615,2.55832 0.99488,4.83236 3.48207,6.77481 1.80031,1.44496 4.95079,2.91362 8.14894,3.33999 0.21346,0 0.40266,-0.0243 0.59246,-0.0243 -2.39247,-1.01859 -4.8323,-2.77148 -5.14029,-5.82724 -0.66323,-6.37215 5.25872,-14.59143 22.97748,-20.06368 l 0.2371,-0.16615 c 4.78494,-3.150485 14.11784,-3.45842 16.53438,-2.58198 0.66329,0.1892 1.46866,0.44996 2.3214,0.75802 5.63773,1.4213 10.51757,4.73758 12.4126,9.2144 2.10825,5.06922 2.29775,15.49195 -20.46633,28.42547 -0.28441,0.1892 -30.88932,18.87936 -66.54137,10.54122 5.30608,2.77148 14.30763,6.34851 25.51167,6.37216"
     id="path936"
     style="fill:#002b7c;stroke-width:6.0641" />
  <path
     d="m 165.489,95.34458 c 0.30805,-0.1419 27.7857,-11.962044 53.34528,-9.901462 -0.52091,-0.1419 -1.11331,-0.308057 -1.72918,-0.449957 -9.14345,-2.179255 -27.38305,-2.937268 -57.7272,9.877813 -0.28441,0.1419 -33.02084,15.586556 -24.70636,37.260866 0.52091,0.78172 14.59144,22.43231 51.30775,3.17419 0.21285,-0.11825 23.64029,-13.59693 18.54765,-26.45949 -1.56338,-3.90855 -5.61402,-5.63773 -8.59889,-6.63291 -2.25033,-0.44996 -4.61915,-0.56881 -6.94036,-0.28441 2.34511,0.37901 4.50071,1.27916 5.59031,3.19785 2.32146,4.07434 -0.7343,11.939 -9.85416,18.02674 -4.54808,3.03205 -13.35982,6.56136 -21.76891,7.22477 -0.9238,0.0946 -1.82396,0.1419 -2.77147,0.0485 -1.87133,0 -3.69535,-0.11825 -5.40087,-0.47361 -0.1419,-0.0243 -0.26076,-0.0709 -0.37901,-0.0946 -4.33486,-1.0423 -7.60378,-3.29262 -9.71226,-6.68021 -0.071,-0.1419 -2.39247,-3.76641 -0.80538,-9.09615 2.01347,-6.89306 9.28535,-13.19427 21.60336,-18.736858"
     id="path938"
     style="fill:#002b7c;stroke-width:6.0641" />
  <path
     d="m 181.3163,120.44995 c 6.22965,-3.64792 9.2144,-8.83539 8.10103,-11.41748 -0.40266,-0.94752 -1.46867,-1.56339 -2.86626,-1.87132 -1.82396,-0.44996 -4.19272,-0.42631 -6.37215,-0.1419 -13.69153,3.10312 -18.59496,8.9779 -18.59496,13.07541 0,2.41618 3.7427,3.76635 5.47194,4.24014 5.28238,0.1892 10.96753,-1.9661 14.26034,-3.88485"
     id="path940"
     style="fill:#002b7c;stroke-width:6.0641" />
  <path
     d="M 124.61696,457.43199 255.85015,458.0008 85.224573,388.4759 Z"
     id="path942"
     style="fill:#002b7c;stroke-width:6.0641" />
  <path
     d="M 371.18327,34.70358 126.48471,33.637633 3.2136854,245.00184 13.96776,263.7866 46.301541,276.03305 29.814466,245.12009 139.67776,56.708501 l 218.11961,0.947516 42.51965,75.231223 -3.64792,38.11408 -0.85279,0.9001 -1.68182,-0.1419 -1.13702,-3.60056 -4.02692,-2.10825 c 0.26075,-0.35535 0.5209,-0.71065 0.78166,-1.18438 5.16401,-8.88269 -4.21643,-12.19915 -4.21643,-12.19915 l -207.07689,31.69463 -4.52436,-1.49232 -17.36334,17.29239 0.37901,6.08775 -6.65656,9.92511 -0.92381,1.94246 0.37901,1.06594 c 0,0 -1.82396,1.96611 -1.63446,2.93727 0.21346,0.94752 72.5327,147.93372 72.5327,147.93372 l 9.49881,5.04558 -72.50845,-153.56727 0.47361,-0.94752 65.87432,80.4888 6.3958,-4.99809 -60.4991,-71.75043 c 0,0 8.10103,-1.18438 11.15673,-9.75957 3.07942,-8.59889 4.85601,-11.27558 0.0243,-19.09221 l 88.28723,-12.43625 5.63768,3.31633 7.60377,-2.27404 88.80875,-18.54765 -0.56882,0.61587 -13.17062,2.93733 -14.09418,17.31603 -17.26874,0.97117 -3.22155,0.8765 -1.46866,1.91869 17.10258,5.77987 2.08453,23.28493 14.18878,2.84255 18.3815,-21.74526 -1.68181,-19.47122 -18.2396,-2.53461 3.95591,-4.99815 27.50191,4.098 0.99494,25.48802 21.05819,3.0084 1.20809,23.75914 18.12135,2.7004 2.79519,7.86454 3.88478,27.05134 -2.03711,2.36882 -1.89504,-10.84928 -1.27916,-9.75956 0.47361,23.78279 -15.3258,17.88424 -1.23174,25.60688 -21.2953,21.95871 -2.74783,25.53532 -26.31698,24.37465 -18.97396,-4.99815 -24.87251,21.17705 -23.56934,-7.08287 -4.26379,3.62427 -38.18503,-8.85905 -59.48033,-24.6354 -48.77356,-20.63189 -110.221076,-49.74442 9.948763,17.41064 166.974993,69.02765 -68.93063,-25.32247 -91.483007,-32.23918 3.482127,6.1114 10.517575,5.61402 -9.23805,-3.41105 3.718992,6.56135 55.595663,25.60627 -49.294457,-14.59144 12.365306,21.60336 32.618181,15.37371 37.66352,13.92863 147.69116,55.47681 63.88529,0.28441 -58.95882,-26.71964 71.39265,24.0672 18.50036,-31.74193 -16.41552,-3.81377 23.52204,-8.36179 28.82812,-49.46001 17.10258,-29.32538 -7.46187,-11.70189 5.11658,-21.2007 -6.1587,-16.43917 -2.17931,-2.60569 0.071,-1.01852 2.13189,1.04223 c 2.51096,-2.74776 0.47361,-7.41457 0.99494,-7.84088 1.4686,-1.27916 1.94239,-4.09799 1.94239,-4.09799 0,0 0.11825,-2.1319 1.06595,-3.19785 0.94751,-1.08966 -0.16555,-4.6665 -0.16555,-4.6665 l 13.09967,-1.42131 0.80537,0.59246 2.10824,-0.75801 -0.11825,-1.13702 -0.66329,-1.84767 -1.23174,-0.1419 -1.13702,0.99488 -12.79161,-1.04224 c 0,0 -1.44495,-1.56338 -1.75289,-3.24526 -0.2844,-1.65811 -1.65817,-19.96908 -1.65817,-19.96908 l -5.09287,-3.07941 -1.84767,-8.93 4.57179,-0.44995 -0.30806,-14.54414 -15.65751,-2.41618 -1.11337,-3.15048 -12.0809,-4.40594 -3.7427,-1.77659 -0.63958,-4.66651 1.68182,-4.00328 -1.70553,-5.61402 3.76641,-43.96473 30.60491,54.12695 15.82366,2.1556 0.30806,24.63541 16.98433,29.68074 -12.2701,21.22435 12.15185,24.6827 26.69599,-45.7888 z"
     id="path944"
     style="fill:#002b7c;stroke-width:6.0641" />
  <metadata
     id="metadata1036">
    <rdf:RDF>
      <cc:Work
         rdf:about="">
        <dc:title>James Webb Space Telescope logo</dc:title>
      </cc:Work>
    </rdf:RDF>
  </metadata>
</svg>
